#!OML:ASF F:\VICON\USERDATA\INSTALL\rory3\rory3.ASF
:FULLY-SPECIFIED
:DEGREES
4094
root -13.849 17.5645 9.26184 -1620.65 10.7374 177.47
lowerback 11.9681 2.87421 -0.871457
upperback 0.900837 3.80643 0.00847325
thorax -5.81515 1.9348 -0.144513
lowerneck -16.1848 -7.52465 -10.664
upperneck 29.8544 -8.69501 8.13835
head 13.7004 -3.36764 3.72426
rclavicle 5.9536e-014 -4.37326e-015
rhumerus -32.7039 -4.30435 -85.9716
rradius 33.4654
rwrist 5.12818
rhand -16.9637 7.32719
rfingers 7.12502
rthumb 9.2704 -22.449
lclavicle 5.9536e-014 -4.37326e-015
lhumerus -35.1202 2.39138 80.8967
lradius 35.9547
lwrist -3.95928
lhand -16.7989 29.2681
lfingers 7.12502
lthumb 9.4294 59.0372
rfemur 5.05321 10.9554 27.6391
rtibia 30.9358
rfoot -14.2124 15.1198
rtoes 17.7423
lfemur -19.288 -12.602 -16.4211
ltibia 21.4235
lfoot -0.467944 -26.1394
ltoes 11.7953
4095
root -13.8538 17.5769 9.15038 -1620.8 11.6957 177.341
lowerback 11.7358 2.97142 -0.951912
upperback 1.03649 3.92771 -0.0798133
thorax -5.54267 1.99839 -0.19418
lowerneck -16.1126 -7.5267 -10.5903
upperneck 29.7989 -8.75373 8.19365
head 13.6663 -3.38331 3.72234
rclavicle 6.85807e-015 -5.1684e-015
rhumerus -32.5164 -4.7458 -85.8806
rradius 32.8796
rwrist 5.36895
rhand -17.0834 7.59945
rfingers 7.12502
rthumb 9.15491 -22.1818
lclavicle 6.85807e-015 -5.1684e-015
lhumerus -35.1889 2.53878 80.8071
lradius 36.0559
lwrist -3.89176
lhand -16.3296 29.74
lfingers 7.12502
lthumb 9.88221 59.4881
rfemur 4.6584 10.7019 27.1365
rtibia 32.3837
rfoot -13.0045 16.1263
rtoes 19.1447
lfemur -18.5889 -12.2004 -16.6645
ltibia 21.4032
lfoot -1.39842 -25.6126
ltoes 10.4075
4096
root -13.8559 17.5905 9.04327 -1620.93 12.6328 177.241
lowerback 11.6075 3.05878 -1.02795
upperback 1.10553 4.03298 -0.173686
thorax -5.39773 2.05243 -0.256831
lowerneck -16.139 -7.51226 -10.3604
upperneck 29.9159 -8.78088 8.13135
head 13.7075 -3.37232 3.65715
rclavicle -9.0447e-015 1.59028e-015
rhumerus -32.463 -5.17281 -85.8305
rradius 32.4268
rwrist 5.25083
rhand -17.1394 7.55174
rfingers 7.12502
rthumb 9.10085 -22.2319
lclavicle -9.0447e-015 1.59028e-015
lhumerus -35.2842 2.65815 80.6687
lradius 36.0336
lwrist -3.86428
lhand -16.7107 28.2659
lfingers 7.12502
lthumb 9.51444 58.0311
rfemur 4.11633 10.2662 26.6058
rtibia 33.9746
rfoot -11.459 17.1418
rtoes 21.0617
lfemur -17.8552 -11.5452 -16.9238
ltibia 21.2865
lfoot -1.84223 -25.5059
ltoes 10.1498
4097
root -13.857 17.6081 8.93834 -1621.01 13.5004 177.062
lowerback 11.5333 3.10584 -1.21849
upperback 1.05801 4.06346 -0.259822
thorax -5.41354 2.0694 -0.242601
lowerneck -16.0414 -7.49878 -10.2993
upperneck 30.1395 -8.78542 8.1825
head 13.783 -3.34862 3.67921
rclavicle 1.6847e-014 0
rhumerus -32.6532 -5.44712 -85.7531
rradius 32.1898
rwrist 5.24449
rhand -17.1492 7.53388
rfingers 7.12502
rthumb 9.09142 -22.2502
lclavicle 1.6847e-014 0
lhumerus -35.4751 2.78721 80.5333
lradius 35.8873
lwrist -3.91782
lhand -17.2279 26.4035
lfingers 7.12502
lthumb 9.01547 56.1908
rfemur 3.37549 9.63296 25.8789
rtibia 35.6922
rfoot -9.78732 18.2372
rtoes 22.0415
lfemur -17.1722 -10.9975 -17.2782
ltibia 21.1142
lfoot -2.56102 -25.3142
ltoes 9.09007
4098
root -13.8582 17.6258 8.83492 -1621.11 14.3244 176.773
lowerback 11.4337 3.13494 -1.49402
upperback 1.01627 4.06024 -0.356062
thorax -5.41393 2.07205 -0.184379
lowerneck -15.8337 -7.48717 -10.4538
upperneck 30.2475 -8.79368 8.40622
head 13.8088 -3.33551 3.80574
rclavicle -3.0911e-014 1.11319e-014
rhumerus -32.805 -5.63884 -85.6295
rradius 31.98
rwrist 5.39265
rhand -16.9519 7.587
rfingers 7.12502
rthumb 9.28172 -22.1887
lclavicle -3.0911e-014 1.11319e-014
lhumerus -35.6817 2.95949 80.4489
lradius 35.7661
lwrist -3.97559
lhand -16.3818 27.5811
lfingers 7.12502
lthumb 9.83179 57.3315
rfemur 2.50572 8.88393 24.9651
rtibia 37.529
rfoot -7.81964 19.384
rtoes 22.5222
lfemur -16.4997 -10.7416 -17.7344
ltibia 20.9063
lfoot -2.90969 -24.8421
ltoes 9.82334
4099
root -13.8575 17.644 8.73216 -1621.23 15.1733 176.658
lowerback 11.3455 3.15927 -1.57624
upperback 1.05012 4.08156 -0.429384
thorax -5.32975 2.08427 -0.211739
lowerneck -15.8129 -7.48943 -10.5417
upperneck 30.3497 -8.82752 8.58031
head 13.8689 -3.33427 3.89121
rclavicle 6.3959e-014 -7.95139e-015
rhumerus -32.8501 -5.93693 -85.5378
rradius 31.869
rwrist 5.60458
rhand -16.7086 7.41224
rfingers 7.12502
rthumb 9.51648 -22.3529
lclavicle 6.3959e-014 -7.95139e-015
lhumerus -35.8282 2.99693 80.3853
lradius 35.7541
lwrist -3.84675
lhand -15.4862 29.7096
lfingers 7.12502
lthumb 10.6957 59.4174
rfemur 1.57648 8.10809 24.2384
rtibia 39.4682
rfoot -5.50106 20.4584
rtoes 22.5151
lfemur -15.7637 -10.4404 -18.0165
ltibia 20.6361
lfoot -3.19612 -24.2781
ltoes 10.3471
